<?xml version="1.0" standalone="no"?>
<!DOCTYPE svg PUBLIC "-//W3C//DTD SVG 20010904//EN"
 "http://www.w3.org/TR/2001/REC-SVG-20010904/DTD/svg10.dtd">
<svg version="1.0" xmlns="http://www.w3.org/2000/svg"
 width="474.000000pt" height="474.000000pt" viewBox="0 0 474.000000 474.000000"
 preserveAspectRatio="xMidYMid meet">
<metadata>
Created by potrace 1.11, written by Peter Selinger 2001-2013
</metadata>
<g transform="translate(0.000000,474.000000) scale(0.100000,-0.100000)"
fill="#000000" stroke="none">
<path d="M2250 4642 c0 -4 -19 -8 -42 -8 -38 -1 -93 -7 -123 -14 -5 -1 -12 -1
-15 0 -18 7 -39 7 -35 0 3 -4 -6 -10 -20 -12 -15 -3 -25 -1 -25 6 0 7 -4 6 -9
-2 -4 -7 -12 -12 -17 -11 -5 1 -20 -1 -34 -4 -14 -4 -36 -9 -50 -11 -14 -3
-40 -9 -58 -15 -18 -5 -33 -9 -35 -9 -1 1 -19 -4 -39 -11 -21 -7 -42 -10 -47
-7 -5 4 -11 2 -13 -2 -1 -5 -37 -21 -78 -36 -41 -15 -85 -32 -97 -38 -11 -6
-27 -7 -35 -3 -7 5 -10 5 -6 0 10 -10 -162 -96 -175 -88 -6 3 -7 2 -4 -4 7
-10 -80 -60 -96 -55 -5 1 -6 -2 -2 -8 6 -10 -9 -15 -30 -10 -5 1 -7 -2 -3 -6
12 -12 -45 -43 -59 -32 -8 7 -10 3 -6 -11 4 -14 1 -21 -9 -21 -8 0 -23 -9 -33
-20 -10 -11 -24 -20 -32 -20 -7 0 -13 -5 -13 -10 0 -6 -7 -13 -16 -17 -9 -3
-34 -23 -57 -44 -22 -21 -44 -36 -49 -33 -4 3 -7 1 -6 -3 4 -12 -132 -139
-144 -135 -5 1 -7 -2 -3 -8 7 -11 -44 -67 -57 -63 -4 2 -7 0 -7 -5 3 -20 -2
-32 -16 -32 -8 0 -14 -3 -13 -8 4 -11 -38 -62 -46 -57 -3 3 -4 2 -2 -1 3 -3
-15 -33 -40 -67 -24 -34 -44 -65 -44 -70 0 -4 -5 -5 -12 -1 -7 4 -8 3 -4 -4 4
-6 -2 -20 -14 -32 -11 -11 -20 -23 -20 -27 0 -5 -8 -17 -17 -28 -9 -11 -17
-22 -16 -25 1 -12 -21 -50 -29 -50 -5 0 -7 -4 -3 -9 3 -5 -2 -16 -10 -25 -9
-8 -16 -18 -15 -21 1 -21 -1 -25 -10 -20 -5 3 -7 0 -4 -8 3 -8 -2 -22 -11 -30
-9 -9 -16 -19 -15 -22 1 -21 -1 -25 -12 -19 -7 4 -8 3 -4 -4 4 -7 0 -26 -8
-44 -8 -18 -20 -50 -27 -70 -7 -20 -16 -35 -20 -32 -4 2 -5 -6 -1 -18 4 -16 2
-19 -8 -13 -8 5 -11 4 -7 -1 6 -11 -36 -168 -43 -160 -3 2 -5 -8 -6 -22 0 -27
-22 -144 -32 -172 -3 -8 -7 -35 -9 -60 -2 -25 -6 -52 -9 -60 -5 -14 -13 -139
-17 -283 -1 -31 2 -57 6 -57 4 0 3 -8 -2 -19 -6 -10 -8 -21 -4 -24 3 -4 7 -23
8 -44 2 -21 6 -69 10 -108 4 -38 8 -82 9 -97 0 -16 4 -28 8 -28 4 0 7 -8 6
-17 0 -10 3 -34 7 -53 4 -19 8 -45 9 -57 0 -13 5 -23 10 -23 4 0 6 -7 3 -15
-4 -8 -1 -17 4 -21 6 -3 9 -15 6 -25 -3 -11 -1 -19 5 -19 6 0 8 -9 5 -20 -3
-11 -2 -18 3 -15 4 2 13 -17 20 -43 7 -26 16 -51 20 -57 4 -5 10 -19 12 -30 3
-11 9 -29 14 -39 6 -15 4 -17 -7 -11 -8 4 -3 -2 9 -15 15 -14 22 -30 19 -42
-3 -11 -3 -17 1 -14 6 7 83 -140 85 -161 0 -7 3 -13 7 -13 8 0 34 -52 32 -62
-1 -5 3 -8 9 -8 5 0 15 -13 20 -30 6 -16 15 -30 20 -30 5 0 9 -4 9 -10 0 -5 6
-18 14 -27 33 -40 134 -181 133 -185 -1 -1 0 -2 2 -1 6 4 46 -51 43 -60 -1 -5
1 -6 6 -3 5 3 21 -8 36 -24 14 -17 24 -30 20 -30 -3 0 8 -12 25 -26 17 -14 28
-31 24 -36 -3 -7 -1 -8 5 -4 7 4 36 -16 69 -48 31 -31 61 -56 65 -56 5 0 6 -4
3 -10 -3 -5 0 -10 7 -10 7 0 27 -12 43 -26 17 -15 47 -38 67 -51 21 -14 35
-30 31 -36 -3 -5 -2 -7 4 -4 13 8 75 -31 68 -43 -3 -5 1 -7 9 -4 8 3 24 -4 35
-15 12 -12 21 -18 21 -15 0 3 13 -3 29 -12 17 -10 27 -22 24 -27 -3 -6 -1 -7
5 -3 6 3 40 -9 75 -28 36 -19 67 -33 69 -30 3 2 11 -2 18 -11 7 -8 18 -15 24
-15 7 0 32 -10 57 -22 24 -11 50 -21 57 -21 6 0 12 -3 12 -7 0 -3 10 -7 22 -7
13 -1 24 -7 26 -13 2 -5 8 -7 14 -4 5 3 16 -2 24 -12 9 -11 13 -14 10 -7 -5 9
2 9 23 3 17 -5 35 -11 41 -15 15 -9 52 -17 77 -17 17 0 19 -3 10 -13 -7 -8
-16 -10 -21 -4 -17 16 -29 10 -15 -8 10 -11 10 -14 2 -9 -8 4 -13 2 -13 -5 0
-7 -7 -4 -15 7 -13 18 -14 16 -11 -19 2 -21 1 -35 -3 -32 -3 4 -7 15 -7 26 -3
37 -4 40 -16 33 -7 -4 -8 -3 -4 4 11 17 -9 15 -24 -3 -10 -13 -9 -15 11 -16
18 -1 19 -3 6 -6 -10 -3 -24 1 -32 7 -12 10 -20 9 -41 -5 -15 -9 -23 -12 -19
-5 5 8 3 11 -4 9 -7 -3 -11 -9 -9 -14 3 -11 25 -11 51 0 10 4 17 3 17 -4 0 -6
-3 -10 -7 -9 -5 1 -18 -2 -31 -6 -14 -4 -28 -3 -36 3 -7 6 -17 7 -22 3 -4 -4
-2 1 6 11 12 17 12 18 -5 15 -10 -1 -20 3 -22 10 -3 6 0 12 7 12 6 0 9 -4 6
-8 -6 -10 30 -9 40 1 11 11 26 8 19 -3 -4 -6 1 -7 11 -3 15 6 15 7 -1 16 -11
6 -21 5 -27 -1 -8 -8 -19 -7 -39 3 -26 14 -27 14 -25 -9 2 -12 6 -28 10 -34 4
-6 2 -21 -4 -32 -9 -17 -7 -27 8 -51 16 -26 20 -28 32 -15 16 20 44 21 37 1
-4 -8 -2 -17 3 -20 6 -4 10 -2 10 2 0 5 9 14 21 21 12 8 18 9 14 3 -3 -6 -1
-11 4 -11 7 0 7 -7 -1 -20 -7 -11 -17 -20 -22 -20 -6 0 -5 5 2 12 18 18 14 32
-5 17 -21 -18 -51 -19 -84 -3 -15 7 -30 10 -34 6 -5 -4 -5 -1 0 7 5 8 4 12 -1
8 -5 -3 -9 19 -9 48 0 29 4 51 9 47 5 -3 6 0 2 7 -5 7 -14 10 -21 7 -24 -9
-26 8 -3 22 16 9 17 12 4 8 -10 -4 -26 -1 -35 6 -14 12 -14 11 -2 -4 11 -15
11 -19 -5 -25 -10 -4 -19 -2 -22 5 -4 14 -22 16 -22 4 0 -5 9 -13 20 -18 19
-8 20 -11 5 -29 -10 -14 -13 -15 -9 -4 5 16 -23 36 -34 24 -3 -3 1 -5 9 -5 11
0 11 -2 -1 -10 -18 -12 -30 -13 -29 -2 1 4 1 14 0 22 -1 13 -2 13 -11 0 -6 -9
-5 -20 3 -29 10 -12 9 -14 -7 -8 -26 10 -107 -38 -100 -58 4 -8 8 -15 11 -15
3 0 3 6 0 14 -6 14 18 31 26 18 2 -4 2 -1 1 6 -2 6 1 12 6 12 13 0 42 -31 35
-38 -3 -4 -10 0 -15 8 -6 9 -10 10 -10 3 0 -19 20 -26 36 -12 8 6 18 9 21 5 4
-4 1 -11 -7 -16 -8 -5 -11 -12 -7 -17 9 -9 28 17 23 32 -2 6 -10 9 -19 9 -9
-1 -18 5 -22 13 -4 11 -1 13 10 9 9 -3 13 -2 10 4 -3 6 -2 10 3 10 5 0 14 -11
21 -24 15 -27 57 -50 73 -40 6 4 9 1 6 -7 -3 -8 -10 -14 -15 -14 -6 0 -14 -3
-18 -7 -13 -13 22 -2 47 14 14 9 29 14 32 11 3 -4 -6 -15 -21 -25 -21 -13 -24
-18 -10 -18 9 0 17 5 17 12 0 6 3 8 7 5 3 -4 12 1 20 11 12 16 13 16 7 0 -4
-11 -1 -18 6 -18 6 0 8 5 5 10 -3 6 -2 10 3 10 6 0 12 -6 15 -14 5 -12 25 -14
47 -6 3 1 10 1 15 0 6 -2 34 -4 63 -6 35 -2 50 1 46 8 -5 7 -2 8 7 3 20 -13
139 -16 139 -4 0 6 -4 8 -9 5 -11 -7 -8 21 4 31 4 4 6 3 2 -2 -9 -17 20 -48
38 -41 9 3 13 11 9 17 -4 8 -3 9 5 5 6 -4 9 -12 6 -17 -4 -5 -2 -9 4 -9 5 0
12 8 14 18 4 16 5 16 6 -1 1 -14 8 -17 34 -14 18 2 31 9 29 16 -1 7 2 10 8 6
6 -3 8 -10 5 -15 -3 -5 47 -9 115 -9 92 0 119 3 113 12 -5 9 -3 9 8 1 9 -8 68
-12 176 -11 145 1 161 2 150 16 -11 14 -10 14 7 1 22 -17 191 -26 201 -10 3 5
12 10 18 10 7 0 6 -4 -3 -11 -12 -8 -10 -9 10 -7 14 2 28 10 32 18 6 13 7 13
7 -1 1 -22 227 -22 241 1 9 13 14 7 11 -13 -2 -15 17 -6 24 11 6 16 7 16 21
-2 8 -11 14 -16 14 -10 0 5 -7 18 -15 28 -8 10 -12 23 -9 27 3 5 1 9 -4 9 -16
0 -22 -13 -12 -25 8 -9 4 -12 -12 -11 -13 0 -27 6 -31 11 -5 6 -5 0 -2 -12 3
-13 2 -23 -3 -23 -5 0 -9 10 -8 23 1 14 7 21 18 19 9 -1 28 12 43 30 25 30 26
33 9 45 -10 7 -20 10 -23 7 -3 -3 1 -9 9 -14 13 -8 13 -10 1 -10 -8 0 -12 -3
-8 -6 3 -4 0 -13 -8 -20 -21 -21 -28 -17 -11 7 16 23 11 53 -8 42 -6 -4 -6 0
2 9 10 12 10 21 1 42 -7 14 -16 23 -20 20 -5 -3 -9 1 -9 8 0 10 -2 10 -9 0 -9
-16 -20 -15 -41 1 -13 10 -13 10 -1 -5 8 -11 9 -18 3 -18 -6 0 -16 8 -21 17
-8 14 -10 14 -11 3 0 -11 -3 -11 -12 -2 -14 14 -9 20 18 25 10 2 28 8 39 13
11 6 27 10 35 9 8 0 18 3 21 8 3 5 12 9 20 10 8 2 20 6 27 10 6 5 17 5 24 1 7
-5 8 -3 3 6 -6 10 -4 12 8 7 10 -3 17 -2 17 2 0 11 56 31 64 24 3 -4 6 -1 6 6
0 8 6 11 16 7 8 -3 13 -2 10 2 -3 5 28 23 67 42 40 18 80 39 89 47 9 8 22 12
29 7 8 -4 10 -3 5 4 -4 7 -1 12 7 12 7 0 23 9 34 19 12 11 24 17 27 14 3 -4 6
-1 6 6 0 7 5 9 10 6 6 -3 13 1 16 10 4 10 13 14 22 10 9 -3 13 -3 9 1 -9 9 65
64 77 57 5 -4 6 -1 2 5 -4 7 -3 12 2 12 5 0 18 8 30 18 57 48 67 56 67 52 1
-3 62 56 136 130 75 74 134 138 132 142 -2 4 2 10 10 15 7 4 32 33 56 63 24
30 48 54 53 52 5 -1 7 2 3 8 -8 13 19 52 29 42 4 -4 7 -2 6 3 -5 23 1 36 13
29 6 -4 9 -4 5 1 -8 9 22 65 34 65 4 0 8 6 8 14 0 7 9 25 21 40 11 14 17 26
12 26 -4 0 0 7 10 14 10 8 18 17 18 20 -3 20 0 27 8 22 5 -3 8 0 8 7 -2 21 35
97 44 91 5 -3 6 1 3 9 -3 8 0 18 5 22 6 3 9 11 6 16 -4 5 -2 9 2 9 5 0 9 10
10 22 1 12 9 26 18 30 8 5 13 13 10 18 -3 4 0 21 7 37 6 15 12 30 12 33 10 43
32 100 39 100 4 0 6 4 3 9 -3 5 0 28 7 52 16 52 15 48 23 99 4 22 10 38 13 35
4 -2 5 10 3 27 -3 17 -1 28 4 25 5 -3 10 11 10 31 4 91 10 142 16 142 3 0 5
105 3 233 -4 258 -7 330 -16 337 -3 3 -11 37 -18 75 -17 95 -19 107 -25 130
-13 50 -43 151 -49 165 -3 8 -7 24 -9 35 -2 11 -6 22 -10 25 -3 3 -8 14 -10
25 -1 11 -6 23 -11 26 -4 3 -9 15 -12 27 -2 11 -8 29 -14 40 -6 11 -7 22 -4
26 3 3 2 6 -4 6 -11 0 -36 53 -36 76 0 7 -4 11 -8 9 -10 -7 -20 25 -12 37 3 7
1 8 -5 4 -7 -4 -12 -2 -12 4 0 6 -18 40 -40 76 -22 36 -40 70 -40 75 0 5 -5 9
-11 9 -6 0 -9 7 -5 15 3 8 0 14 -7 12 -7 -1 -11 4 -9 11 1 6 -2 12 -8 12 -11
0 -45 60 -42 73 1 5 -1 6 -6 3 -8 -4 -52 45 -52 58 0 2 -22 28 -49 57 -27 29
-47 58 -44 63 3 5 2 7 -3 4 -10 -5 -45 28 -37 35 2 3 -5 8 -16 12 -12 3 -21
13 -21 21 0 8 -7 14 -15 14 -14 0 -19 12 -16 33 0 4 -3 6 -8 5 -8 -3 -51 30
-147 113 -24 20 -40 40 -36 45 4 4 2 4 -4 1 -14 -8 -76 37 -66 48 4 5 1 5 -6
1 -13 -7 -45 17 -37 28 3 3 2 4 -1 1 -11 -8 -84 37 -77 48 3 6 1 7 -5 3 -6 -3
-18 1 -26 10 -9 8 -16 13 -16 10 0 -3 -31 13 -70 35 -38 21 -74 39 -80 39 -5
0 -10 4 -10 10 0 5 -3 9 -7 8 -5 -1 -18 3 -30 10 -13 7 -23 10 -23 7 0 -3 -12
0 -27 9 -73 38 -222 93 -261 95 -7 1 -11 5 -8 10 4 5 -2 7 -12 4 -10 -2 -31 1
-47 8 -17 6 -43 13 -60 16 -35 4 -70 11 -70 13 0 1 -16 3 -35 6 -38 5 -75 12
-75 14 0 0 -27 3 -60 6 -106 9 -150 13 -150 14 0 1 -44 2 -98 3 -53 1 -97 -1
-97 -5 0 -4 -11 -3 -25 2 -14 5 -25 6 -25 2z m781 -4447 c5 3 6 0 4 -7 -3 -8
2 -14 14 -15 11 -1 22 5 25 12 6 16 46 12 57 -7 9 -15 1 -31 -12 -23 -5 4 -20
-6 -33 -20 -22 -23 -24 -24 -19 -6 3 12 8 21 12 21 4 0 16 7 27 15 18 14 18
14 -5 10 -12 -2 -29 -9 -37 -16 -8 -6 -14 -7 -14 -2 0 11 -8 13 -75 16 -37 1
-50 6 -50 17 0 8 7 15 15 15 8 1 24 6 35 12 16 9 22 8 33 -8 7 -11 18 -17 23
-14z m-135 -17 c3 -4 -1 -5 -10 -4 -8 1 -18 5 -22 8 -3 4 1 5 10 4 8 -1 18 -5
22 -8z m-1366 -40 c0 -6 -6 -8 -13 -5 -8 3 -14 -1 -14 -9 0 -8 7 -13 16 -12 9
2 16 -4 16 -12 0 -8 -5 -14 -12 -13 -6 1 -14 -4 -17 -12 -3 -9 0 -12 10 -8 7
3 14 0 14 -5 0 -16 -18 -24 -25 -12 -4 6 -11 8 -16 5 -12 -8 -71 34 -64 45 3
5 0 10 -6 12 -6 2 1 9 16 16 14 7 24 8 20 3 -3 -5 -1 -12 3 -15 12 -7 52 40
44 50 -4 5 1 2 11 -5 9 -7 17 -18 17 -23z m420 28 c0 -2 -7 -7 -16 -10 -8 -3
-12 -2 -9 4 6 10 25 14 25 6z m965 -6 c-3 -5 -12 -10 -18 -10 -7 0 -6 4 3 10
19 12 23 12 15 0z m91 -19 c0 -11 -4 -17 -8 -15 -4 3 -8 12 -8 20 0 8 4 14 8
14 4 0 8 -9 8 -19z m-42 -7 c3 -8 2 -12 -4 -9 -6 3 -10 10 -10 16 0 14 7 11
14 -7z m171 -23 c-6 -5 -25 10 -25 20 0 5 6 4 14 -3 8 -7 12 -15 11 -17z
m-1525 8 c0 -5 -4 -7 -10 -4 -5 3 -10 -3 -10 -14 0 -24 15 -28 24 -6 3 8 10
15 16 15 6 0 2 -9 -9 -21 -11 -12 -24 -18 -30 -14 -12 7 -15 38 -4 48 10 10
23 8 23 -4z m65 3 c-5 -4 -11 -15 -12 -25 -1 -13 4 -17 15 -12 13 5 14 3 5 -6
-16 -16 -30 -4 -27 23 3 30 2 28 17 28 7 0 8 -3 2 -8z m155 4 c0 -3 -4 -8 -10
-11 -5 -3 -10 -1 -10 4 0 6 5 11 10 11 6 0 10 -2 10 -4z m1215 -14 c-3 -3 -11
0 -18 7 -9 10 -8 11 6 5 10 -3 15 -9 12 -12z m-1665 -2 c-8 -5 -19 -10 -25
-10 -5 0 -3 5 5 10 8 5 20 10 25 10 6 0 3 -5 -5 -10z m369 -3 c8 -10 7 -14 -2
-14 -8 0 -14 6 -14 14 0 7 1 13 2 13 2 0 8 -6 14 -13z m1261 -1 c0 -2 -7 -7
-16 -10 -8 -3 -12 -2 -9 4 6 10 25 14 25 6z m99 1 c-2 -1 -13 -9 -24 -17 -19
-14 -19 -14 -6 3 7 9 18 17 24 17 6 0 8 -1 6 -3z m16 -17 c-3 -5 -12 -10 -18
-10 -7 0 -6 4 3 10 19 12 23 12 15 0z m-71 -15 c-4 -8 -11 -15 -16 -15 -6 0
-5 6 2 15 7 8 14 15 16 15 2 0 1 -7 -2 -15z m-1269 -26 c3 -4 0 -11 -6 -15 -8
-4 -9 -3 -5 4 4 7 1 12 -8 12 -8 0 -17 4 -20 9 -4 5 3 7 14 4 11 -3 23 -9 25
-14z m85 17 c0 -3 -4 -8 -10 -11 -5 -3 -10 -1 -10 4 0 6 5 11 10 11 6 0 10 -2
10 -4z m1080 -2 c0 -8 -19 -13 -24 -6 -3 5 1 9 9 9 8 0 15 -2 15 -3z m65 -30
c-8 -6 -11 -15 -7 -19 4 -5 1 -5 -7 0 -12 7 -12 10 1 19 8 6 13 18 11 26 -4
13 -3 13 6 0 8 -11 7 -18 -4 -26z m75 25 c0 6 5 11 11 11 8 0 8 -4 0 -14 -6
-7 -9 -22 -5 -32 5 -16 4 -16 -5 -4 -9 13 -11 13 -11 0 0 -13 -1 -13 -10 0 -5
8 -10 10 -10 4 0 -6 -7 -11 -15 -11 -8 0 -15 4 -15 9 0 4 7 8 16 8 9 0 12 5 8
13 -5 8 -2 8 9 -2 20 -16 23 -2 5 19 -11 12 -10 12 5 1 11 -9 17 -10 17 -2z
m-300 -19 c0 -5 -2 -10 -4 -10 -3 0 -8 5 -11 10 -3 6 -1 10 4 10 6 0 11 -4 11
-10z m33 -15 c-7 -21 -12 -19 -10 4 0 11 5 18 9 15 4 -3 5 -11 1 -19z m152 7
c-3 -3 -11 0 -18 7 -9 10 -8 11 6 5 10 -3 15 -9 12 -12z m-1223 1 c-6 -2 -10
-8 -8 -12 3 -4 -6 -7 -19 -7 -13 0 -21 4 -19 8 3 5 9 6 14 3 5 -3 11 -1 15 5
3 5 12 10 18 9 9 0 8 -2 -1 -6z m116 -5 c-2 -6 -12 -12 -21 -14 -9 -1 -15 2
-11 7 3 5 10 7 15 4 5 -4 9 -1 9 4 0 6 3 11 6 11 3 0 4 -5 2 -12z m323 -5 c13
-16 12 -17 -3 -4 -17 13 -22 21 -14 21 2 0 10 -8 17 -17z m759 -4 c0 -5 -4 -9
-8 -9 -5 0 -9 7 -9 15 0 8 4 12 9 9 4 -3 8 -9 8 -15z m-1140 7 c0 -3 -4 -8
-10 -11 -5 -3 -10 -1 -10 4 0 6 5 11 10 11 6 0 10 -2 10 -4z m344 -4 c3 -5 -1
-9 -9 -9 -8 0 -12 4 -9 9 7 10 11 10 18 0z"/>
<path d="M2965 200 c-7 -12 -7 -12 28 -14 26 -2 27 -1 11 11 -21 16 -31 16
-39 3z"/>
<path d="M2930 190 c0 -5 5 -10 10 -10 6 0 10 5 10 10 0 6 -4 10 -10 10 -5 0
-10 -4 -10 -10z"/>
<path d="M1480 115 c-9 -11 -16 -13 -24 -5 -5 5 -15 10 -20 10 -6 0 -4 -5 4
-10 12 -8 12 -10 1 -10 -8 0 -2 -9 13 -21 24 -19 53 -18 41 2 -4 5 -1 9 6 9 8
0 9 3 0 13 -6 8 -8 17 -4 20 3 4 4 7 1 7 -3 0 -11 -7 -18 -15z m1 -23 c-11 -4
-11 -6 0 -13 8 -5 9 -9 3 -9 -6 0 -18 8 -25 17 -8 10 -9 14 -2 10 6 -4 15 -2
18 4 4 5 10 7 14 3 3 -4 0 -9 -8 -12z"/>
<path d="M1617 216 c-4 -10 1 -12 14 -9 23 6 24 9 5 16 -8 3 -17 0 -19 -7z"/>
<path d="M1694 218 c-4 -7 -2 -8 4 -4 7 4 12 3 12 -3 0 -15 -18 -23 -25 -11
-3 5 -11 10 -18 10 -6 0 -2 -7 9 -15 17 -13 21 -12 34 4 9 9 22 15 30 13 8 -3
12 -2 9 2 -11 12 -49 15 -55 4z"/>
<path d="M3138 218 c5 -5 16 -8 23 -6 8 3 3 7 -10 11 -17 4 -21 3 -13 -5z"/>
<path d="M3249 217 c6 -8 7 -18 3 -22 -4 -5 -1 -5 6 -1 10 6 10 11 1 22 -6 8
-14 14 -16 14 -3 0 0 -6 6 -13z"/>
<path d="M1753 196 c-3 -6 -3 -8 2 -4 4 4 13 3 20 -2 8 -7 12 -5 12 3 0 16
-25 18 -34 3z"/>
<path d="M3190 190 c-5 -9 -6 -20 -3 -24 3 -3 2 -6 -4 -6 -17 0 -23 13 -13 25
7 8 6 12 -3 12 -7 0 -13 -12 -12 -28 0 -20 4 -26 17 -24 14 3 29 -14 32 -37 1
-3 4 -9 8 -13 4 -4 4 -14 0 -23 -5 -14 -3 -15 10 -5 8 7 18 10 21 6 4 -3 7 -2
7 4 0 5 -10 15 -22 21 -13 6 -17 11 -9 11 11 1 10 6 -4 21 -10 11 -16 20 -14
21 41 7 52 8 44 2 -15 -12 -18 -36 -4 -31 16 5 20 36 6 45 -7 5 -12 14 -12 22
0 21 -34 22 -45 1z m37 -11 c-1 -10 -3 -16 -6 -14 -2 3 -10 0 -17 -6 -9 -8
-12 -6 -9 8 2 10 4 21 4 24 2 15 29 3 28 -12z"/>
<path d="M3305 200 c-3 -6 1 -7 9 -4 18 7 21 14 7 14 -6 0 -13 -4 -16 -10z"/>
<path d="M1395 190 c-4 -6 -11 -8 -16 -5 -5 3 -6 -1 -3 -10 4 -9 7 -15 8 -13
1 2 8 11 15 21 7 9 11 17 8 17 -3 0 -9 -5 -12 -10z"/>
<path d="M1313 169 c-2 -23 3 -25 10 -4 4 8 3 16 -1 19 -4 3 -9 -4 -9 -15z"/>
<path d="M3267 183 c-2 -5 -2 -18 -1 -31 1 -13 -6 -28 -16 -34 -17 -11 -17
-12 0 -27 18 -15 18 -17 -2 -36 l-21 -20 7 20 c6 15 4 17 -5 8 -6 -6 -19 -9
-28 -6 -10 3 -12 2 -5 -4 6 -4 16 -17 23 -28 9 -14 11 -15 7 -3 -3 12 -1 15 9
11 8 -3 13 -9 10 -13 -3 -4 2 -11 10 -14 13 -5 14 -2 4 15 -16 31 -4 33 20 3
15 -19 21 -22 21 -10 0 9 -5 16 -11 16 -8 0 -9 4 0 13 6 8 8 17 5 20 -4 3 3 5
15 4 23 -1 28 -13 9 -20 -7 -2 -10 -8 -6 -12 4 -5 18 4 30 20 20 26 22 26 35
9 12 -16 13 -16 13 -1 0 9 -4 17 -9 17 -11 0 -9 33 4 42 13 9 25 0 25 -20 0
-15 -2 -15 -10 -2 -5 8 -10 11 -10 5 0 -5 4 -16 8 -23 6 -9 12 -6 20 12 9 19
8 25 -3 30 -9 3 -12 13 -9 23 5 17 5 17 -6 1 -6 -10 -16 -18 -22 -18 -7 0 -6
5 2 15 10 12 9 16 -5 21 -11 5 -21 1 -27 -9 -4 -9 -15 -14 -23 -11 -8 4 -12
11 -8 18 4 6 -1 5 -10 -3 -10 -8 -21 -10 -25 -6 -4 4 -1 10 6 12 6 3 10 9 6
14 -6 11 -21 12 -27 2z m106 -35 c-6 -7 -9 -22 -7 -33 1 -10 -2 -25 -7 -31
-12 -14 -49 -14 -49 -1 0 5 -7 4 -15 -3 -8 -7 -13 -16 -10 -20 3 -5 1 -11 -4
-14 -5 -4 -12 -2 -15 3 -4 5 -1 13 4 16 8 5 6 13 -5 25 -14 15 -14 18 0 30 8
7 12 17 8 24 -4 6 1 5 10 -3 14 -11 17 -11 17 0 0 9 3 10 8 4 12 -16 39 -16
46 0 3 8 11 15 17 15 8 0 8 -4 2 -12z"/>
<path d="M3270 115 c-7 -9 -6 -16 4 -24 9 -8 16 -8 20 -2 4 6 13 8 21 4 8 -3
15 0 15 6 0 6 0 14 0 18 0 12 -50 10 -60 -2z m54 -7 c-3 -5 -9 -6 -14 -3 -5 3
-11 1 -15 -5 -4 -6 -11 -8 -16 -4 -15 9 -2 20 25 20 13 0 22 -4 20 -8z"/>
<path d="M3346 93 c-6 -14 -5 -15 5 -6 7 7 10 15 7 18 -3 3 -9 -2 -12 -12z"/>
<path d="M3327 173 c3 -7 6 -13 8 -13 2 0 5 6 8 13 3 8 -1 14 -8 14 -7 0 -11
-6 -8 -14z"/>
<path d="M3390 182 c0 -5 7 -9 15 -9 8 0 12 4 9 9 -3 4 -9 8 -15 8 -5 0 -9 -4
-9 -8z"/>
<path d="M3430 179 c0 -5 5 -7 10 -4 6 3 10 8 10 11 0 2 -4 4 -10 4 -5 0 -10
-5 -10 -11z"/>
<path d="M1127 159 c7 -7 15 -10 18 -7 3 3 -2 9 -12 12 -14 6 -15 5 -6 -5z"/>
<path d="M1175 160 c-3 -5 -1 -10 4 -10 6 0 11 5 11 10 0 6 -2 10 -4 10 -3 0
-8 -4 -11 -10z"/>
<path d="M956 147 c3 -10 9 -15 12 -12 3 3 0 11 -7 18 -10 9 -11 8 -5 -6z"/>
<path d="M1335 152 c6 -7 -15 -32 -27 -32 -5 0 -7 4 -3 9 9 15 -15 25 -28 12
-9 -9 -7 -10 7 -5 13 5 17 4 12 -4 -12 -20 11 -22 47 -3 36 18 36 19 12 24
-14 2 -23 2 -20 -1z"/>
<path d="M1556 133 c-6 -14 -5 -15 5 -6 7 7 10 15 7 18 -3 3 -9 -2 -12 -12z"/>
<path d="M3435 140 c-13 -6 -15 -9 -5 -9 8 0 22 4 30 9 18 12 2 12 -25 0z"/>
<path d="M3533 133 c0 -9 4 -10 14 -2 7 6 13 12 13 14 0 1 -6 2 -13 2 -8 0
-14 -6 -14 -14z"/>
<path d="M1265 115 c17 -14 18 -17 5 -26 -12 -9 -12 -10 -1 -7 24 7 24 26 -1
38 -22 11 -22 11 -3 -5z"/>
<path d="M3465 121 c3 -5 1 -12 -5 -16 -5 -3 -10 -1 -10 6 0 7 -3 9 -6 6 -4
-4 -1 -14 7 -24 12 -15 12 -16 -6 -9 -11 4 -16 4 -12 0 4 -4 -1 -12 -10 -19
-13 -9 -13 -14 -3 -20 8 -5 11 -4 7 2 -4 6 5 15 19 22 14 6 23 15 19 20 -3 6
2 14 11 19 15 8 15 10 0 15 -10 4 -14 3 -11 -2z"/>
<path d="M1236 107 c3 -10 9 -15 12 -12 3 3 0 11 -7 18 -10 9 -11 8 -5 -6z"/>
<path d="M3675 111 c-3 -5 -2 -12 3 -15 5 -3 9 1 9 9 0 17 -3 19 -12 6z"/>
<path d="M3505 99 c-4 -6 -5 -12 -2 -15 2 -3 7 2 10 11 7 17 1 20 -8 4z"/>
<path d="M3190 79 c0 -5 5 -7 10 -4 6 3 10 8 10 11 0 2 -4 4 -10 4 -5 0 -10
-5 -10 -11z"/>
<path d="M1215 69 c-4 -6 -5 -12 -2 -15 2 -3 7 2 10 11 7 17 1 20 -8 4z"/>
<path d="M1550 76 c0 -2 8 -10 18 -17 15 -13 16 -12 3 4 -13 16 -21 21 -21 13z"/>
<path d="M1254 54 c1 -7 6 -17 10 -21 4 -4 6 -1 4 7 -2 9 3 14 12 12 8 -2 11
0 7 4 -13 14 -35 12 -33 -2z"/>
<path d="M1617 53 c-11 -10 -8 -20 6 -20 8 0 14 6 14 14 0 14 -10 17 -20 6z"/>
<path d="M3356 51 c-3 -5 1 -11 9 -14 9 -4 12 -1 8 9 -6 16 -10 17 -17 5z"/>
<path d="M1315 40 c-3 -5 -1 -10 4 -10 6 0 11 5 11 10 0 6 -2 10 -4 10 -3 0
-8 -4 -11 -10z"/>
<path d="M1426 42 c-3 -4 4 -9 15 -9 23 -2 25 3 4 10 -8 4 -16 3 -19 -1z"/>
<path d="M3467 39 c7 -7 15 -10 18 -7 3 3 -2 9 -12 12 -14 6 -15 5 -6 -5z"/>
<path d="M3427 19 c7 -7 15 -10 18 -7 3 3 -2 9 -12 12 -14 6 -15 5 -6 -5z"/>
<path d="M1430 9 c0 -5 5 -7 10 -4 6 3 10 8 10 11 0 2 -4 4 -10 4 -5 0 -10 -5
-10 -11z"/>
</g>
</svg>
